<svg xmlns="http://www.w3.org/2000/svg" viewBox="0 0 490.54 493.13"><defs><style>.cls-1{fill:#fff;stroke:#b17f4a;}.cls-1,.cls-2,.cls-3{stroke-miterlimit:10;}.cls-2{fill:#f39200;}.cls-2,.cls-3{stroke:#f39200;}.cls-3{fill:none;}.cls-4{fill:#0087ce;}</style></defs><g id="Calque_2" data-name="Calque 2"><g id="Calque_1-2" data-name="Calque 1"><g id="fuseaux"><path class="cls-1" d="M240.19,88.76c1.47-1.47.16-5.23-2.92-9l8.47-8.5c3.75,3.07,7.51,4.37,9,2.9s.16-5.23-2.92-9l.09-.1-3.76-3.75-.09.1c-3.76-3.07-7.52-4.37-9-2.9s-.15,5.23,2.93,9L233.51,76c-3.76-3.07-7.52-4.37-9-2.9s-.15,5.23,2.93,9l-80,80.2c-11.52,4.71-43.72,31.92-79.07,67.37C26.8,271.38-3.41,308.68.91,313s41.55-26,83.14-67.69c35.36-35.45,62.49-67.72,67.16-79.25l80-80.2C235,88.93,238.72,90.23,240.19,88.76Z"/><path class="cls-1" d="M340.7,186.47c1.47-1.47.16-5.23-2.92-9l8.47-8.49c3.75,3.07,7.51,4.37,9,2.9s.16-5.24-2.92-9l.09-.09-3.76-3.75-.09.09c-3.75-3.07-7.52-4.37-9-2.9s-.16,5.23,2.92,9L334,173.75c-3.75-3.07-7.52-4.37-9-2.9s-.16,5.23,2.92,9L248,260c-11.52,4.7-43.71,31.91-79.07,67.37-41.59,41.69-71.8,79-67.48,83.31s41.55-26,83.14-67.69c35.36-35.45,62.49-67.72,67.17-79.25l80-80.2C335.47,186.64,339.23,187.94,340.7,186.47Z"/><rect class="cls-2" x="147.56" y="115.78" width="94.82" height="5.31" transform="translate(-26.5 173.13) rotate(-45.15)"/><line class="cls-3" x1="239.13" y1="78.87" x2="441.16" y2="0.63"/><rect class="cls-2" x="246.86" y="214.58" width="94.82" height="5.31" transform="translate(-67.27 272.65) rotate(-45.15)"/><line class="cls-3" x1="336.29" y1="171.93" x2="438.52" y2="0.26"/><line class="cls-3" x1="490.54" y1="286.37" x2="490.54" y2="286.37"/><path class="cls-3" d="M235.85,77.18c1.63,1.84,3.77,2.61,4.78,1.71l-5.89-6.65C233.73,73.13,234.23,75.35,235.85,77.18Z"/><path class="cls-3" d="M336.45,174.63c1.63,1.84,4.18,2.24,5.7.9l-5.89-6.66C334.74,170.21,334.83,172.79,336.45,174.63Z"/></g><g id="noms"><path class="cls-4" d="M85.7,382.35A11.17,11.17,0,0,1,81.38,385a47.66,47.66,0,0,1-6.12,1.84q-3.32.78-6.5,1.6a15.69,15.69,0,0,1,.61,5,5.67,5.67,0,0,1-1.48,3.6,4.73,4.73,0,0,1-3.26,1.55,8.63,8.63,0,0,1-3.72-.61,9,9,0,0,1-2.84-1.67,4,4,0,0,1-1.3-2.61,4.5,4.5,0,0,1,1.54-3.33,13.8,13.8,0,0,1,2.81-2.23c1.14-.71,2.39-1.39,3.73-2.05a70.93,70.93,0,0,0-4.44-7.9q-2.74-4.29-5.95-9L48,359.8a10.39,10.39,0,0,1-5.89.62,10.08,10.08,0,0,1-5.17-2.6,11.16,11.16,0,0,1-2-2.5,7.87,7.87,0,0,1-1.06-2.8,2.52,2.52,0,0,1,.59-2.24,7.92,7.92,0,0,0,1.44,2.19,27,27,0,0,0,2,2.12,13.84,13.84,0,0,0,4.76,3.1,8.87,8.87,0,0,0,4.27.53q-3-4.5-5.56-8.7a68.41,68.41,0,0,1-4.15-7.88,21.09,21.09,0,0,1-1.84-6.54,5.59,5.59,0,0,1,1.36-4.55,5.38,5.38,0,0,1,2.36-1.38,6.37,6.37,0,0,1,3.62.13,12.37,12.37,0,0,1,4.67,3,27.22,27.22,0,0,1,4.14,5.05,25.91,25.91,0,0,1,3,6.46,15.78,15.78,0,0,1,.61,6.82,11.38,11.38,0,0,1-3,6.19l-.19.2c-.09.11-.3.33-.61.66q3.09,4.56,6.2,9.37t5.69,9.33a74.43,74.43,0,0,1,4.2,8.48l5.75-2.47a51.66,51.66,0,0,0,5.37-2.66,17,17,0,0,0,4-3.08,7.4,7.4,0,0,0,1.34-2,8.09,8.09,0,0,0,.62-2.21,12.82,12.82,0,0,1,2.42,5.86A5.14,5.14,0,0,1,85.7,382.35ZM50.48,356.27a6.92,6.92,0,0,0,1.79-5.2,19.34,19.34,0,0,0-1.51-6.65,35.66,35.66,0,0,0-3.41-6.48,26.75,26.75,0,0,0-3.94-4.82,6.27,6.27,0,0,0-3-1.88,1.92,1.92,0,0,0-1.73.49c-.87.93-.83,2.61.13,5a54.16,54.16,0,0,0,4.63,8.67Q46.62,350.48,50.48,356.27Zm15.37,39.18a3.84,3.84,0,0,0,1-2.59,10,10,0,0,0-.7-3.65,27.3,27.3,0,0,0-3.93,1.44,8.68,8.68,0,0,0-2.8,1.89,2.25,2.25,0,0,0-.77,1.48,1.7,1.7,0,0,0,.6,1.15,5.81,5.81,0,0,0,3.21,1.35A3.62,3.62,0,0,0,65.85,395.45Z"/><path class="cls-4" d="M94.13,367.77a6.23,6.23,0,0,1-6,2.11,13.31,13.31,0,0,1-6.6-3.59,27.72,27.72,0,0,1-5.16-6.73,38.9,38.9,0,0,1-3.53-8.36,26.09,26.09,0,0,1-1.13-8,8.43,8.43,0,0,1,2-5.66,3.92,3.92,0,0,1,2.56-1.2q1.59-.15,4,2.07a14.61,14.61,0,0,1,3.65,5.32A18.77,18.77,0,0,1,85.22,350a20.92,20.92,0,0,1-.63,6.16,15.48,15.48,0,0,1-2.33,5.13c.38.46.74.89,1.1,1.28s.71.75,1,1.07a17.52,17.52,0,0,0,2.08,1.65,8.47,8.47,0,0,0,2.3,1.09,4.33,4.33,0,0,0,2.28.07,4.37,4.37,0,0,0,2.08-1.32,8.22,8.22,0,0,0,2-5.3,23.72,23.72,0,0,0-.87-7.4,40.29,40.29,0,0,0-3.1-8h1.09a36.22,36.22,0,0,1,3.81,9.34,22.92,22.92,0,0,1,.62,8.18A10.31,10.31,0,0,1,94.13,367.77Zm-12.88-7.9a23.72,23.72,0,0,0,.86-4.34,28.1,28.1,0,0,0,.09-5.45A20.05,20.05,0,0,0,81,344.55,11.87,11.87,0,0,0,77.91,340a3.52,3.52,0,0,0-1.26-.85,1,1,0,0,0-1.1.41,4.75,4.75,0,0,0-1,3.41,20.57,20.57,0,0,0,.93,5.26,40.87,40.87,0,0,0,2.36,6A37,37,0,0,0,81.25,359.87Z"/><path class="cls-4" d="M108.48,353.33a6,6,0,0,1-4.46,2.12,10.26,10.26,0,0,1-4.89-1.28,20.6,20.6,0,0,1-4.35-3.09A13.21,13.21,0,0,1,92.15,348a5.55,5.55,0,0,1-.72-2.32,6.36,6.36,0,0,1,.15-1.72,2.47,2.47,0,0,0,.1-1.13,60.07,60.07,0,0,0-2.13-6.63,53.51,53.51,0,0,0-3-6.56l-.77-.72a9.91,9.91,0,0,1-2.85-3.72q-.48-1.5.12-2.13a.84.84,0,0,1,.76-.3,1.39,1.39,0,0,1,.75.36,9.31,9.31,0,0,1,.9,1.1A13.69,13.69,0,0,0,87.1,326a27.66,27.66,0,0,0,5.15,3.72c2,1.15,4.12,2.39,6.31,3.7a36.45,36.45,0,0,1,6.24,4.74c.56.52,1.09,1,1.58,1.6a20,20,0,0,1,1.32,1.62,7.87,7.87,0,0,0,.75-4.87,23.87,23.87,0,0,0-2.72-7.61l1,.2a16.15,16.15,0,0,1,3,7.59,9.93,9.93,0,0,1-1.21,5.88,10.3,10.3,0,0,1,1.93,6.06A7.36,7.36,0,0,1,108.48,353.33ZM105,344.16c-.38-.46-.79-.93-1.23-1.4s-1-1-1.63-1.61a48.56,48.56,0,0,0-6.5-5.11q-3.48-2.28-6.46-4.39c1,2.22,1.86,4.4,2.63,6.55a47.13,47.13,0,0,1,1.66,5.65,17.23,17.23,0,0,0,5.82,1.51A9.61,9.61,0,0,0,105,344.16Zm1.32,7a4.45,4.45,0,0,0,.83-1.92c.22-.93-.23-2.21-1.34-3.87a9.51,9.51,0,0,1-5.26,1.37,16.78,16.78,0,0,1-5.26-.82c-.57.7-.13,1.74,1.33,3.1a13.06,13.06,0,0,0,5.19,3Q104.67,352.89,106.31,351.13Z"/><path class="cls-4" d="M138.25,326.12q-2.19,1.83-4,1.06a14.11,14.11,0,0,1-3.94-2.75,41.16,41.16,0,0,1-5.07-6q-2.74-3.84-5.79-8.58c-2-3.17-4-6.33-6.06-9.51-.3.4-.6.83-.92,1.3s-.7,1.05-1.15,1.75-1,1.63-1.71,2.79a5.85,5.85,0,0,1-1.78-3.32,6.3,6.3,0,0,1,.57-3.38,13.6,13.6,0,0,1,2.22-3.41q-3.78-5.9-7.27-11.65t-6.19-10.73c-.33.26-.63.53-.92.79s-.57.55-.85.85a13.13,13.13,0,0,0-3.33,5.24,6,6,0,0,0,.55,4.57,19.48,19.48,0,0,0,3.89,4.74,32.49,32.49,0,0,0,2.74,2.3,28.44,28.44,0,0,0,2.9,1.87,4.61,4.61,0,0,1-3.81.65,9.37,9.37,0,0,1-4-2.37A14.37,14.37,0,0,1,90,285.15a15.91,15.91,0,0,1,.2-8.21,18.32,18.32,0,0,1,4.39-7.59,28.49,28.49,0,0,1,4.8-4.17,28.43,28.43,0,0,0,4.54-3.9,11.83,11.83,0,0,0,1.46-1.88,12.61,12.61,0,0,0,1-2,20.24,20.24,0,0,1,1,6.16,5,5,0,0,1-1.25,3.14,15.68,15.68,0,0,1-2.92,2.29A41.2,41.2,0,0,0,99.07,272q1.58,2.58,3.9,6.09t5,7.45q2.65,3.93,5.29,7.82,2.31-2.07,4.56-3.72a32.46,32.46,0,0,0,3.84-3.2,5,5,0,0,1,.42,1.94,4.13,4.13,0,0,1-.63,1.9,22.59,22.59,0,0,1-1.93,2.64q-1.31,1.6-3.6,4.18,1.09,1.53,2.58,3.69c1,1.43,2,2.77,2.87,4s1.58,2.18,2,2.78q4,5.63,7.7,10.35A74.21,74.21,0,0,0,138.25,326.12Z"/><path class="cls-4" d="M150.79,305.34q-1.42,1.53-4.26.62a14.46,14.46,0,0,1-5.4-3.32,34.55,34.55,0,0,1-3.91-4.46c-1.37-1.81-2.65-3.66-3.84-5.57a36.83,36.83,0,0,1-2.71-5q-.91-2.11-.45-2.61a2.45,2.45,0,0,1,1.07-.44,4.11,4.11,0,0,1,1.78,0,46.22,46.22,0,0,0,2.21,4.34,64.35,64.35,0,0,0,3.65,5.77,32,32,0,0,0,4.26,5c.34.32.89.78,1.66,1.38a8.33,8.33,0,0,0,2.32,1.33,1.6,1.6,0,0,0,1.85-.3c.53-.57.66-1.55.38-2.93a27.38,27.38,0,0,0-1.54-4.87c-.76-1.86-1.64-3.79-2.65-5.81s-2-3.93-3-5.75-1.75-3.33-2.38-4.55a11,11,0,0,1,1-.55,5.47,5.47,0,0,1,1.4-.46,1.46,1.46,0,0,1,1.3.41,14.66,14.66,0,0,1,1.29,2.05q1,1.8,2.55,4.37c1,1.71,2.09,3.37,3.23,5a24.94,24.94,0,0,0,3.31,3.94,5.89,5.89,0,0,0,2.18,1.4,1.59,1.59,0,0,0,1.78-.48,5.22,5.22,0,0,0,.93-3.44,21,21,0,0,0-1-6.09,38.56,38.56,0,0,0-3.31-7.74l1.12-.05a35.84,35.84,0,0,1,3.84,8.23,21.86,21.86,0,0,1,1.12,7.12A7.08,7.08,0,0,1,159,296.6a3.67,3.67,0,0,1-2.39,1.27,4.91,4.91,0,0,1-2.67-.64,12.47,12.47,0,0,1-2.65-1.93,18.44,18.44,0,0,1-1.49-1.56c-.48-.56-1-1.15-1.44-1.76a50.51,50.51,0,0,1,2.32,5.45,17.54,17.54,0,0,1,1.08,4.72A4.12,4.12,0,0,1,150.79,305.34Z"/><path class="cls-4" d="M171.85,285.52a6,6,0,0,1-4.46,2.12,10.26,10.26,0,0,1-4.89-1.28,20.6,20.6,0,0,1-4.35-3.09,13.13,13.13,0,0,1-2.62-3.13,5.73,5.73,0,0,1-.73-2.32,6.33,6.33,0,0,1,.16-1.72,2.59,2.59,0,0,0,.09-1.13,60,60,0,0,0-2.12-6.63,56.66,56.66,0,0,0-3-6.56l-.77-.72a10.07,10.07,0,0,1-2.86-3.72q-.47-1.5.12-2.13a.84.84,0,0,1,.76-.3,1.32,1.32,0,0,1,.75.36,8.27,8.27,0,0,1,.9,1.1,13.69,13.69,0,0,0,1.68,1.82,27.1,27.1,0,0,0,5.15,3.72c2,1.15,4.12,2.39,6.31,3.7a37.44,37.44,0,0,1,6.25,4.74c.55.52,1.08,1.06,1.57,1.6a20.24,20.24,0,0,1,1.33,1.62,8,8,0,0,0,.75-4.87,24.21,24.21,0,0,0-2.72-7.61l1,.2a16.26,16.26,0,0,1,3,7.59,10.06,10.06,0,0,1-1.21,5.88,10.38,10.38,0,0,1,1.93,6.06A7.29,7.29,0,0,1,171.85,285.52Zm-3.49-9.17c-.37-.46-.78-.93-1.23-1.4s-1-1-1.63-1.61a47.32,47.32,0,0,0-6.5-5.11q-3.48-2.28-6.45-4.39,1.47,3.33,2.62,6.55a45.34,45.34,0,0,1,1.66,5.65,17,17,0,0,0,5.82,1.51A9.59,9.59,0,0,0,168.36,276.35Zm1.32,7a4.22,4.22,0,0,0,.83-1.92c.22-.92-.22-2.21-1.33-3.87a9.53,9.53,0,0,1-5.26,1.38,16.72,16.72,0,0,1-5.26-.83c-.58.7-.13,1.74,1.32,3.1a13.2,13.2,0,0,0,5.19,3C167.08,284.79,168.59,284.49,169.68,283.32Z"/><path class="cls-4" d="M186.05,269.42a6.24,6.24,0,0,1-6,2.1,13.16,13.16,0,0,1-6.59-3.59,27.8,27.8,0,0,1-5.17-6.73,38.78,38.78,0,0,1-3.52-8.35,25.57,25.57,0,0,1-1.13-8,8.44,8.44,0,0,1,2-5.67,3.88,3.88,0,0,1,2.57-1.19c1.06-.11,2.38.59,4,2.07a14.64,14.64,0,0,1,3.66,5.31,19,19,0,0,1,1.34,6.24,20.89,20.89,0,0,1-.63,6.16,15.61,15.61,0,0,1-2.32,5.14c.37.46.74.88,1.09,1.27s.71.75,1.06,1.07a16,16,0,0,0,2.08,1.65,8.13,8.13,0,0,0,2.29,1.09,4,4,0,0,0,4.36-1.24,8.19,8.19,0,0,0,2-5.31,23.93,23.93,0,0,0-.86-7.39,40.75,40.75,0,0,0-3.1-8.05h1.08a36.27,36.27,0,0,1,3.81,9.35,22.68,22.68,0,0,1,.62,8.18A10.24,10.24,0,0,1,186.05,269.42Zm-12.88-7.9a23.59,23.59,0,0,0,.87-4.35,28,28,0,0,0,.08-5.44,19.76,19.76,0,0,0-1.22-5.54,12,12,0,0,0-3.06-4.59,3.63,3.63,0,0,0-1.27-.84,1,1,0,0,0-1.1.4,4.71,4.71,0,0,0-.95,3.41,19.67,19.67,0,0,0,.93,5.26,40.36,40.36,0,0,0,2.35,6A37.91,37.91,0,0,0,173.17,261.52Z"/><path class="cls-4" d="M197.74,257.3a3.91,3.91,0,0,1-3.53,1.13,9.37,9.37,0,0,1-4.93-2.79,26.47,26.47,0,0,1-4.31-5.39A42,42,0,0,1,179.45,236a21.35,21.35,0,0,1-.28-6.59,8.26,8.26,0,0,1,2-4.74,5.13,5.13,0,0,1,4.06-1.7,7,7,0,0,1,4.6,2.11,4.06,4.06,0,0,1,1.62,2.65,3,3,0,0,1-.91,2.14c-.29-.38-.61-.78-1-1.21a14.63,14.63,0,0,0-1.07-1.12,8.09,8.09,0,0,0-3-1.88,2.38,2.38,0,0,0-2.66.72,5.18,5.18,0,0,0-1.15,3.74,21.35,21.35,0,0,0,1,5.65,44.27,44.27,0,0,0,2.52,6.41,48.16,48.16,0,0,0,3.44,6,26.79,26.79,0,0,0,3.74,4.51q2.51,2.34,3.65,1.13c.64-.69.89-1.87.72-3.55a32.2,32.2,0,0,0-1.2-5.81q-1-3.3-2.18-6.63c-.82-2.23-1.59-4.24-2.31-6-.15-.36-.21-.55-.18-.58a5,5,0,0,1,.91-.46,3.25,3.25,0,0,1,1.21-.26,1.55,1.55,0,0,1,1.13.46,6.09,6.09,0,0,1,1.2,1.88c.41.9.89,1.91,1.44,3s1.14,2.25,1.77,3.34a11.72,11.72,0,0,0,2.1,2.72,7.16,7.16,0,0,0,2.23,1.41,1.67,1.67,0,0,0,2-.29c.76-.82.91-2.67.45-5.58a43.72,43.72,0,0,0-3.88-11.14l1.06.15a36.34,36.34,0,0,1,3.84,8.15,21.39,21.39,0,0,1,1.16,7,7,7,0,0,1-1.62,4.69,3.58,3.58,0,0,1-3.71,1.13,8.55,8.55,0,0,1-3.83-2.09c-.25-.25-.53-.53-.82-.86l-.92-1a42,42,0,0,1,2.3,8.78Q199.31,255.64,197.74,257.3Z"/><path class="cls-4" d="M216.14,235.41c-.95,1-2.37,1.23-4.25.62a14.39,14.39,0,0,1-5.41-3.31,35.24,35.24,0,0,1-3.91-4.46q-2-2.72-3.84-5.57a37.86,37.86,0,0,1-2.7-5c-.61-1.41-.76-2.29-.45-2.62a2.42,2.42,0,0,1,1.06-.43,4.1,4.1,0,0,1,1.78,0,46.22,46.22,0,0,0,2.21,4.34,65.92,65.92,0,0,0,3.65,5.78,31.87,31.87,0,0,0,4.26,5c.34.32.9.79,1.66,1.39a8.43,8.43,0,0,0,2.32,1.32,1.6,1.6,0,0,0,1.85-.3c.53-.57.66-1.55.39-2.93a27.69,27.69,0,0,0-1.55-4.86c-.75-1.86-1.64-3.8-2.65-5.81s-2-3.94-2.95-5.75-1.74-3.34-2.38-4.55a8.93,8.93,0,0,1,1-.55,5.22,5.22,0,0,1,1.4-.46,1.45,1.45,0,0,1,1.31.41,15,15,0,0,1,1.28,2c.69,1.21,1.54,2.66,2.55,4.37s2.09,3.38,3.23,5A24.49,24.49,0,0,0,219.3,223a6.07,6.07,0,0,0,2.18,1.41,1.62,1.62,0,0,0,1.79-.49,5.21,5.21,0,0,0,.92-3.44,21.38,21.38,0,0,0-1-6.09,39.73,39.73,0,0,0-3.32-7.74l1.13,0a36.14,36.14,0,0,1,3.83,8.22A21.65,21.65,0,0,1,226,222a7.08,7.08,0,0,1-1.64,4.71,3.6,3.6,0,0,1-2.39,1.27,4.76,4.76,0,0,1-2.66-.63,12.58,12.58,0,0,1-2.66-1.94,20.17,20.17,0,0,1-1.49-1.56c-.48-.56-1-1.15-1.43-1.76a53.53,53.53,0,0,1,2.31,5.46,17.09,17.09,0,0,1,1.08,4.72A4.07,4.07,0,0,1,216.14,235.41Z"/><path class="cls-4" d="M235.15,218.82a.52.52,0,0,1-.55.08,2.11,2.11,0,0,1-.84-.53,10.88,10.88,0,0,1-1.85-3.5q-1.08-2.79-2.37-6.82c-.86-2.69-1.67-5.49-2.42-8.38q-3.24-2.61-5.8-4.32c-1.7-1.14-2.88-1.37-3.52-.68a3.23,3.23,0,0,0-.49,3.17,25.33,25.33,0,0,0,1.85,4.86c.89,1.84,1.84,3.82,2.83,5.94l-1.41-.56q-1.14-2.25-2.49-4.56a49.34,49.34,0,0,1-2.31-4.49,11.41,11.41,0,0,1-1.07-4.08A4.39,4.39,0,0,1,216,191.6a3.73,3.73,0,0,1,4.19-.93,19.71,19.71,0,0,1,5.42,2.91q-1.17-5.07-1.73-8.79c-.37-2.49-.37-3.93,0-4.32a2.7,2.7,0,0,1,.83-.49q.61-.27.93,0c-.31.33-.38,1.25-.22,2.75a46.92,46.92,0,0,0,1.07,5.64c.54,2.25,1.18,4.67,1.9,7.26,1.37,1.11,2.72,2.24,4.07,3.38s2.59,2.13,3.75,3a11.28,11.28,0,0,0,3.09,1.66,1.9,1.9,0,0,0,2.11-.39,3.51,3.51,0,0,0,.66-2.64,18,18,0,0,0-.8-4.11,46.14,46.14,0,0,0-3.64-8.69l1.06.15a33.77,33.77,0,0,1,3.59,6.94,24.87,24.87,0,0,1,1.64,6.9q.23,3.17-1.24,4.74a3.17,3.17,0,0,1-3.2.9,13.37,13.37,0,0,1-4.35-1.92c-1.59-1-3.21-2.14-4.85-3.39q1.44,4.9,2.85,9.21t2.12,6.5C235.34,218.32,235.32,218.64,235.15,218.82Z"/><path class="cls-4" d="M262.93,192.71q-.65-1.12-3.34-5.91l-7-12.51q-4.32-7.69-9.84-17.47T231,136.13c-.21-.37-.52-.84-.91-1.41a9.17,9.17,0,0,0-1.31-1.51,3.05,3.05,0,0,0-1.46-.82c-.5-.11-1.05.16-1.64.79a5,5,0,0,0-1.09,4.84,18.15,18.15,0,0,0,2.81,6.09,32.91,32.91,0,0,0,4.78,5.6c.43.4.8.74,1.11,1s.64.53,1,.78a2.14,2.14,0,0,1-2.16.56,9.12,9.12,0,0,1-2.84-1.22,16.86,16.86,0,0,1-2.52-1.89,14.23,14.23,0,0,1-3.29-4.6A18.44,18.44,0,0,1,222,139a13.88,13.88,0,0,1,.24-5.1,8.44,8.44,0,0,1,2-3.85,4.35,4.35,0,0,1,3.53-1.39c1.42.07,3.33.89,5.71,2.47a79.38,79.38,0,0,1,9.43,7.85c2.67,2.48,5.43,5.2,8.31,8.14s5.71,5.85,8.49,8.73,5.34,5.47,7.68,7.78a110.53,110.53,0,0,1-6.45-9.87q-3.19-5.49-6.11-11.21t-5.31-10.9q-2.38-5.19-4-9.1t-2.39-5.7a24,24,0,0,1-1-2.91,1.86,1.86,0,0,1,.42-1.81,4.27,4.27,0,0,1,1.8-1q.87,1.4,2.62,4.1c1.18,1.8,2.67,3.92,4.5,6.35q3.26,4.39,7.57,9.78t8.89,10.8q4.59,5.43,8.79,10t7.29,7.49a27.12,27.12,0,0,0,2.27,2,14.62,14.62,0,0,0,1.62,1c.5.28,1.18.69,2,1.26a4.73,4.73,0,0,1-2.9,1.68,5.12,5.12,0,0,1-3.29-1.06,35,35,0,0,1-4.47-3.67A145.72,145.72,0,0,1,264,144.12q-7.5-9.59-15.32-20.18a71,71,0,0,0,3.47,8.35q2.31,4.82,5.2,10.18t5.91,10.58q3,5.23,5.69,9.59t4.56,7.13a3.56,3.56,0,0,0-.14.54.83.83,0,0,1-.23.37c-.76.81-1.95.71-3.56-.32a46.21,46.21,0,0,1-6.15-5q-2.64-2.46-6.17-6T250,152.09q-3.74-3.75-7.21-7.2t-6-5.86c-.86-.8-1.57-1.45-2.14-2s-1.09-.95-1.55-1.32q8.61,14.81,14.8,25.14t9.93,16.93a69.92,69.92,0,0,1,5,10.12Q264.07,191.5,262.93,192.71Z"/><path class="cls-4" d="M294.21,154.07a3.9,3.9,0,0,1-3.53,1.14,9.41,9.41,0,0,1-4.93-2.79,26.47,26.47,0,0,1-4.31-5.39,40.91,40.91,0,0,1-3.43-6.92,40.5,40.5,0,0,1-2.09-7.31,21.73,21.73,0,0,1-.28-6.6,8.29,8.29,0,0,1,2-4.74,5.16,5.16,0,0,1,4.06-1.69,7,7,0,0,1,4.61,2.11,4.06,4.06,0,0,1,1.61,2.65,3,3,0,0,1-.91,2.14c-.29-.38-.61-.78-1-1.21a13,13,0,0,0-1.06-1.12,8.2,8.2,0,0,0-3-1.88,2.39,2.39,0,0,0-2.66.72,5.18,5.18,0,0,0-1.15,3.74,21.42,21.42,0,0,0,1,5.65,44.27,44.27,0,0,0,2.52,6.41,48.16,48.16,0,0,0,3.44,6,27.2,27.2,0,0,0,3.74,4.51c1.68,1.56,2.89,1.94,3.65,1.13s.89-1.88.72-3.55a32.2,32.2,0,0,0-1.2-5.81q-1-3.3-2.18-6.64c-.82-2.22-1.59-4.24-2.31-6-.15-.36-.21-.56-.18-.59a5.48,5.48,0,0,1,.91-.45,3.26,3.26,0,0,1,1.21-.27,1.61,1.61,0,0,1,1.13.47,6.09,6.09,0,0,1,1.2,1.88c.41.89.9,1.91,1.44,3s1.14,2.24,1.77,3.34a11.94,11.94,0,0,0,2.1,2.72,7.1,7.1,0,0,0,2.24,1.41,1.68,1.68,0,0,0,2-.3q1.14-1.22.45-5.57a43.72,43.72,0,0,0-3.88-11.14l1.06.15a36.84,36.84,0,0,1,3.85,8.15,21.58,21.58,0,0,1,1.15,7,7,7,0,0,1-1.62,4.69,3.58,3.58,0,0,1-3.71,1.13,8.4,8.4,0,0,1-3.82-2.1,11.34,11.34,0,0,1-.83-.85l-.92-1a41.32,41.32,0,0,1,2.3,8.77Q295.77,152.4,294.21,154.07Z"/><path class="cls-4" d="M313,131.83a3.91,3.91,0,0,1-4.49,1,16.32,16.32,0,0,1-5.51-3.59,55,55,0,0,1-6.58-7.67q-3.5-4.78-6.95-10.51T283,99.58q-3-5.74-5.2-10.76a66.88,66.88,0,0,1-3.14-8.38c-.63-2.25-.71-3.63-.23-4.14.3-.33.83-.35,1.56-.06a12.88,12.88,0,0,1,2.39,1.31,17.23,17.23,0,0,1,2.2,1.71,31.08,31.08,0,0,1,4,4.85q2.24,3.23,4.64,7.55t4.51,9.11q2.1,4.8,3.66,9.58a45.22,45.22,0,0,1,2,8.94q1.48,1.89,3,3.58c1,1.13,2,2.16,3,3.08a14.6,14.6,0,0,0,4.2,3,2.19,2.19,0,0,0,2.61-.34c.76-.81,1-2.1.71-3.86a26.77,26.77,0,0,0-1.79-5.89,56.19,56.19,0,0,0-3.15-6.37l1.14-.19a49.93,49.93,0,0,1,5,12C314.82,127.7,314.47,130.21,313,131.83Zm-15.41-15a58.21,58.21,0,0,0-2.32-7.9q-1.55-4.23-3.49-8.46t-4-8c-1.36-2.51-2.65-4.67-3.88-6.5A25,25,0,0,0,280.73,82a2.78,2.78,0,0,0-1-.67c-.2,0-.32,0-.38,0-.22.24-.06,1.16.48,2.77s1.38,3.67,2.5,6.17,2.47,5.27,4.07,8.29,3.35,6.09,5.24,9.24S295.53,114,297.54,116.83Z"/><path class="cls-4" d="M297.74,88.49a2.51,2.51,0,0,1-1.72.8,2.83,2.83,0,0,1-2.13-.94,4.18,4.18,0,0,1-1.32-3.3,4.52,4.52,0,0,1,1-3.12,1.9,1.9,0,0,1,1.46-.66,3.17,3.17,0,0,1,1.93,1,5,5,0,0,1,1.48,3.12A3.57,3.57,0,0,1,297.74,88.49Zm24.43,33a3.83,3.83,0,0,1-4,1.14,10.82,10.82,0,0,1-4.63-2.72,32.35,32.35,0,0,1-3.38-3.87q-1.89-2.49-3.78-5.44a57.83,57.83,0,0,1-3.3-5.83,23.35,23.35,0,0,1-1.91-5.12c-.33-1.49-.22-2.54.34-3.14a1.2,1.2,0,0,1,1-.36,2.19,2.19,0,0,1,1.34.7,10.76,10.76,0,0,1,1.85,3q1.1,2.33,2.46,5.38a56.93,56.93,0,0,0,3.19,6.06,23.93,23.93,0,0,0,4.08,5.12c1.55,1.45,2.75,2.23,3.6,2.35a2.59,2.59,0,0,0,2.33-.94q1.42-1.54.86-5.32T318,101.67l1,.2q4.31,6.48,5,11.7C324.43,117.05,323.83,119.68,322.17,121.45Z"/><path class="cls-4" d="M342.5,98.93a3.66,3.66,0,0,1-3.37,1.28,7.16,7.16,0,0,1-3.7-2,17,17,0,0,1-2.51-3c-.78-1.15-1.6-2.32-2.45-3.51a22,22,0,0,0-2.76-3.17,5.94,5.94,0,0,0-3-1.8,2.11,2.11,0,0,0-1.87.65c-.87.93-1.21,2.39-1,4.37a29.9,29.9,0,0,0,1.57,6.71c.85,2.49,1.82,5,2.89,7.43s2,4.66,2.89,6.58a3.87,3.87,0,0,1-1.64,1,3.28,3.28,0,0,1-2,0,18.3,18.3,0,0,1-1.55-2.34q-1.23-2-3.09-5t-4-5.82a34.16,34.16,0,0,0-4.24-4.88,4.8,4.8,0,0,1-.1-1.7,2.76,2.76,0,0,1,.69-1.64c.76-.81,1.69-.7,2.81.35a32.77,32.77,0,0,1,3.07,3.62q2,2.67,4.08,5.76c-1-2.45-1.9-5-2.7-7.63a29.25,29.25,0,0,1-1.33-7.28,6.66,6.66,0,0,1,1.46-5,3.62,3.62,0,0,1,4.18-.86,13.62,13.62,0,0,1,4.73,2.94A19.92,19.92,0,0,1,332.88,88c.86,1.36,1.66,2.7,2.42,4A15.15,15.15,0,0,0,338,95.43a4.81,4.81,0,0,0,2.26,1.4,1.58,1.58,0,0,0,1.45-.46c.71-.75.9-2,.6-3.67a29.64,29.64,0,0,0-1.79-5.76q-1.33-3.22-2.95-6.27l1.3.29a53.91,53.91,0,0,1,3.62,7.35A19.41,19.41,0,0,1,344,94.49,5.88,5.88,0,0,1,342.5,98.93Z"/><path class="cls-4" d="M354.94,89.62a6,6,0,0,1-4.46,2.12,10.26,10.26,0,0,1-4.89-1.28,20.6,20.6,0,0,1-4.35-3.09,12.89,12.89,0,0,1-2.62-3.13,5.73,5.73,0,0,1-.73-2.32,6,6,0,0,1,.16-1.72,2.59,2.59,0,0,0,.09-1.13A60,60,0,0,0,336,72.44a56.66,56.66,0,0,0-3-6.56l-.78-.72a10.13,10.13,0,0,1-2.85-3.72q-.47-1.5.12-2.13a.84.84,0,0,1,.76-.3,1.32,1.32,0,0,1,.75.36,7.65,7.65,0,0,1,.9,1.1,13.69,13.69,0,0,0,1.68,1.82A28,28,0,0,0,338.71,66c2,1.15,4.12,2.39,6.31,3.7a37,37,0,0,1,6.24,4.74c.56.52,1.09,1,1.58,1.6a20.24,20.24,0,0,1,1.33,1.62,8,8,0,0,0,.75-4.87,24.21,24.21,0,0,0-2.72-7.61l1,.2a16.22,16.22,0,0,1,3,7.59A10.06,10.06,0,0,1,355,78.86a10.29,10.29,0,0,1,1.92,6.06A7.31,7.31,0,0,1,354.94,89.62Zm-3.49-9.17c-.37-.46-.78-.93-1.23-1.4s-1-1-1.63-1.61a47.93,47.93,0,0,0-6.5-5.11q-3.48-2.28-6.46-4.39c1,2.22,1.86,4.4,2.63,6.55a45.34,45.34,0,0,1,1.66,5.65,17.23,17.23,0,0,0,5.82,1.51A9.59,9.59,0,0,0,351.45,80.45Zm1.32,7a4.33,4.33,0,0,0,.83-1.92c.22-.93-.23-2.21-1.33-3.87A9.53,9.53,0,0,1,347,83a16.73,16.73,0,0,1-5.26-.82c-.58.7-.14,1.74,1.32,3.1a13.2,13.2,0,0,0,5.19,3C350.17,88.89,351.68,88.59,352.77,87.42Z"/></g><text/></g></g></svg>